<svg width="38" height="38" viewBox="0 0 38 38" fill="none" xmlns="http://www.w3.org/2000/svg">
<rect width="38" height="38" rx="10" fill="white"/>
<path d="M12.4652 13.7521C12.4652 14.1713 11.9803 14.4044 11.6529 14.1426L8.08941 11.292C7.83919 11.0918 7.83919 10.7113 8.08941 10.5111L11.6526 7.66079C11.98 7.39886 12.465 7.63206 12.4649 8.05137L12.4645 9.74822C15.1508 9.74822 17.3283 11.7095 17.3283 14.3956C17.3283 14.4845 17.2096 14.5107 17.1638 14.4345C16.3921 13.1519 15.0122 12.0419 13.438 12.0419H12.4652V13.7521Z" fill="#222222"/>
<path d="M18.6673 15.75V6.03H20.9953C21.6513 6.03 22.2033 6.11 22.6513 6.27C23.1073 6.422 23.4513 6.686 23.6833 7.062C23.9233 7.438 24.0433 7.95 24.0433 8.598C24.0433 8.99 24.0073 9.342 23.9353 9.654C23.8633 9.966 23.7393 10.234 23.5633 10.458C23.3953 10.674 23.1593 10.842 22.8553 10.962L24.2113 15.75H22.4353L21.2593 11.298H20.4433V15.75H18.6673ZM20.4433 10.182H20.9953C21.3393 10.182 21.6113 10.134 21.8113 10.038C22.0193 9.934 22.1673 9.774 22.2553 9.558C22.3433 9.334 22.3873 9.05 22.3873 8.706C22.3873 8.218 22.2953 7.854 22.1113 7.614C21.9353 7.366 21.5953 7.242 21.0913 7.242H20.4433V10.182ZM27.2101 15.858C26.6901 15.858 26.2661 15.762 25.9381 15.57C25.6101 15.37 25.3661 15.082 25.2061 14.706C25.0541 14.322 24.9781 13.862 24.9781 13.326V11.238C24.9781 10.686 25.0541 10.222 25.2061 9.846C25.3661 9.47 25.6101 9.186 25.9381 8.994C26.2741 8.802 26.6981 8.706 27.2101 8.706C27.7621 8.706 28.1901 8.81 28.4941 9.018C28.8061 9.226 29.0261 9.53 29.1541 9.93C29.2901 10.322 29.3581 10.802 29.3581 11.37V12.354H26.5981V13.722C26.5981 13.946 26.6181 14.13 26.6581 14.274C26.7061 14.418 26.7781 14.522 26.8741 14.586C26.9701 14.65 27.0861 14.682 27.2221 14.682C27.3661 14.682 27.4821 14.65 27.5701 14.586C27.6581 14.514 27.7221 14.414 27.7621 14.286C27.8021 14.15 27.8221 13.982 27.8221 13.782V13.206H29.3461V13.674C29.3461 14.378 29.1701 14.918 28.8181 15.294C28.4661 15.67 27.9301 15.858 27.2101 15.858ZM26.5981 11.55H27.8221V10.89C27.8221 10.65 27.8021 10.458 27.7621 10.314C27.7221 10.162 27.6581 10.054 27.5701 9.99C27.4821 9.918 27.3581 9.882 27.1981 9.882C27.0541 9.882 26.9381 9.918 26.8501 9.99C26.7621 10.062 26.6981 10.182 26.6581 10.35C26.6181 10.518 26.5981 10.758 26.5981 11.07V11.55Z" fill="#222222"/>
<path d="M6.25 24.75C6.25 21.4625 6.25 19.8188 7.15796 18.7124C7.32418 18.5099 7.50989 18.3242 7.71243 18.158C8.81878 17.25 10.4625 17.25 13.75 17.25H24.25C27.5375 17.25 29.1812 17.25 30.2876 18.158C30.4901 18.3242 30.6758 18.5099 30.842 18.7124C31.75 19.8188 31.75 21.4625 31.75 24.75C31.75 28.0375 31.75 29.6812 30.842 30.7876C30.6758 30.9901 30.4901 31.1758 30.2876 31.342C29.1812 32.25 27.5375 32.25 24.25 32.25H13.75C10.4625 32.25 8.81878 32.25 7.71243 31.342C7.50989 31.1758 7.32418 30.9901 7.15796 30.7876C6.25 29.6812 6.25 28.0375 6.25 24.75Z" fill="#EF1A19"/>
<path d="M10.1862 29.5559V21.1439H8.63818V19.8359H13.4862V21.1439H11.9622V29.5559H10.1862ZM14.8394 29.6639C14.5674 29.6639 14.3434 29.5959 14.1674 29.4599C13.9914 29.3159 13.8634 29.1279 13.7834 28.8959C13.7034 28.6559 13.6634 28.4039 13.6634 28.1399V22.6199H15.2954V27.8399C15.2954 28.0479 15.3274 28.2119 15.3914 28.3319C15.4634 28.4439 15.5914 28.4999 15.7754 28.4999C15.8954 28.4999 16.0154 28.4679 16.1354 28.4039C16.2634 28.3399 16.3874 28.2639 16.5074 28.1759V22.6199H18.1394V29.5559H16.5074V28.8959C16.2754 29.1199 16.0194 29.3039 15.7394 29.4479C15.4594 29.5919 15.1594 29.6639 14.8394 29.6639ZM22.3833 29.6639C22.1273 29.6639 21.8873 29.6039 21.6633 29.4839C21.4393 29.3639 21.2313 29.2159 21.0393 29.0399V29.5559H19.4073V19.8359H21.0393V23.1479C21.2393 22.9559 21.4553 22.8039 21.6873 22.6919C21.9273 22.5719 22.1833 22.5119 22.4553 22.5119C22.7673 22.5119 23.0233 22.5839 23.2233 22.7279C23.4233 22.8719 23.5793 23.0639 23.6913 23.3039C23.8033 23.5359 23.8793 23.7879 23.9193 24.0599C23.9673 24.3239 23.9913 24.5799 23.9913 24.8279V27.1799C23.9913 27.6359 23.9353 28.0519 23.8233 28.4279C23.7193 28.8039 23.5473 29.1039 23.3073 29.3279C23.0753 29.5519 22.7673 29.6639 22.3833 29.6639ZM21.7593 28.5239C21.9353 28.5239 22.0633 28.4679 22.1433 28.3559C22.2313 28.2359 22.2873 28.0799 22.3113 27.8879C22.3433 27.6879 22.3593 27.4719 22.3593 27.2399V24.7559C22.3593 24.5399 22.3433 24.3479 22.3113 24.1799C22.2793 24.0039 22.2193 23.8639 22.1313 23.7599C22.0513 23.6559 21.9233 23.6039 21.7473 23.6039C21.6193 23.6039 21.4953 23.6359 21.3753 23.6999C21.2553 23.7559 21.1433 23.8199 21.0393 23.8919V28.2719C21.1433 28.3439 21.2553 28.4039 21.3753 28.4519C21.5033 28.4999 21.6313 28.5239 21.7593 28.5239ZM27.214 29.6639C26.694 29.6639 26.27 29.5679 25.942 29.3759C25.614 29.1759 25.37 28.8879 25.21 28.5119C25.058 28.1279 24.982 27.6679 24.982 27.1319V25.0439C24.982 24.4919 25.058 24.0279 25.21 23.6519C25.37 23.2759 25.614 22.9919 25.942 22.7999C26.278 22.6079 26.702 22.5119 27.214 22.5119C27.766 22.5119 28.194 22.6159 28.498 22.8239C28.81 23.0319 29.03 23.3359 29.158 23.7359C29.294 24.1279 29.362 24.6079 29.362 25.1759V26.1599H26.602V27.5279C26.602 27.7519 26.622 27.9359 26.662 28.0799C26.71 28.2239 26.782 28.3279 26.878 28.3919C26.974 28.4559 27.09 28.4879 27.226 28.4879C27.37 28.4879 27.486 28.4559 27.574 28.3919C27.662 28.3199 27.726 28.2199 27.766 28.0919C27.806 27.9559 27.826 27.7879 27.826 27.5879V27.0119H29.35V27.4799C29.35 28.1839 29.174 28.7239 28.822 29.0999C28.47 29.4759 27.934 29.6639 27.214 29.6639ZM26.602 25.3559H27.826V24.6959C27.826 24.4559 27.806 24.2639 27.766 24.1199C27.726 23.9679 27.662 23.8599 27.574 23.7959C27.486 23.7239 27.362 23.6879 27.202 23.6879C27.058 23.6879 26.942 23.7239 26.854 23.7959C26.766 23.8679 26.702 23.9879 26.662 24.1559C26.622 24.3239 26.602 24.5639 26.602 24.8759V25.3559Z" fill="white"/>
</svg>
